<svg xmlns="http://www.w3.org/2000/svg" viewBox="0 0 900 620" role="img" aria-labelledby="title desc">
  <title id="title">Moving preparation illustration</title>
  <desc id="desc">A person organizing moving boxes and a checklist before requesting a quote.</desc>
  <defs>
    <linearGradient id="bg" x1="0" y1="0" x2="1" y2="1">
      <stop offset="0" stop-color="#f8fbff"/>
      <stop offset="0.58" stop-color="#ffffff"/>
      <stop offset="1" stop-color="#eef7ff"/>
    </linearGradient>
    <linearGradient id="panel" x1="0" y1="0" x2="1" y2="1">
      <stop offset="0" stop-color="#ffffff"/>
      <stop offset="1" stop-color="#f8fafc"/>
    </linearGradient>
    <filter id="shadow" x="-20%" y="-20%" width="140%" height="140%">
      <feDropShadow dx="0" dy="20" stdDeviation="18" flood-color="#0f172a" flood-opacity="0.13"/>
    </filter>
  </defs>

  <rect width="900" height="620" rx="42" fill="url(#bg)"/>
  <circle cx="118" cy="96" r="72" fill="#eef2ff"/>
  <circle cx="790" cy="112" r="88" fill="#ecfeff"/>
  <circle cx="760" cy="514" r="112" fill="#f0fdf4"/>

  <g filter="url(#shadow)">
    <rect x="455" y="72" width="350" height="240" rx="30" fill="url(#panel)" stroke="#dbe5f1" stroke-width="2"/>
    <rect x="488" y="110" width="250" height="22" rx="11" fill="#c7d2fe"/>
    <rect x="488" y="154" width="82" height="106" rx="18" fill="#f8fafc" stroke="#dbe5f1"/>
    <rect x="602" y="154" width="82" height="106" rx="18" fill="#f8fafc" stroke="#dbe5f1"/>
    <rect x="716" y="154" width="58" height="106" rx="18" fill="#f8fafc" stroke="#dbe5f1"/>
    <path d="M510 205l14 14 30-42" fill="none" stroke="#10b981" stroke-width="10" stroke-linecap="round" stroke-linejoin="round"/>
    <rect x="620" y="188" width="44" height="38" rx="9" fill="#f6bd60" stroke="#d97706" stroke-width="2"/>
    <path d="M620 207h44M642 188v38" stroke="#d97706" stroke-width="2" opacity="0.5"/>
    <rect x="730" y="184" width="30" height="12" rx="6" fill="#93c5fd"/>
    <rect x="730" y="210" width="30" height="12" rx="6" fill="#dcfce7"/>
  </g>

  <g filter="url(#shadow)">
    <rect x="124" y="365" width="150" height="104" rx="18" fill="#f6bd60" stroke="#d97706" stroke-width="2"/>
    <path d="M124 400h150M199 365v104" stroke="#d97706" stroke-width="2" opacity="0.48"/>
    <rect x="244" y="418" width="112" height="78" rx="16" fill="#fbbf24" stroke="#d97706" stroke-width="2"/>
    <path d="M244 448h112M300 418v78" stroke="#d97706" stroke-width="2" opacity="0.45"/>
  </g>

  <g filter="url(#shadow)">
    <ellipse cx="280" cy="310" rx="92" ry="108" fill="#e0f2fe"/>
    <circle cx="266" cy="178" r="38" fill="#f8c8a4"/>
    <path d="M220 174c12-48 74-64 110-24 12 14 10 34 0 50-24-28-64-34-110-26z" fill="#4b2e22"/>
    <path d="M202 300c18-66 108-74 142-8l28 96H174l28-88z" fill="#f0abfc"/>
    <rect x="240" y="274" width="96" height="116" rx="18" fill="#ffffff" stroke="#cbd5e1" stroke-width="2"/>
    <path d="M262 304h48M262 332h60M262 360h42" stroke="#94a3b8" stroke-width="9" stroke-linecap="round"/>
    <path d="M192 342c28 20 54 28 86 28" stroke="#f8c8a4" stroke-width="17" stroke-linecap="round"/>
  </g>

  <g filter="url(#shadow)">
    <ellipse cx="626" cy="388" rx="94" ry="106" fill="#eef2ff"/>
    <circle cx="630" cy="246" r="40" fill="#f8c8a4"/>
    <path d="M584 240c10-48 72-72 116-30 16 16 14 42 4 58-28-34-72-42-120-28z" fill="#374151"/>
    <path d="M556 354c24-72 122-82 158-10l44 110H532l24-100z" fill="#93c5fd"/>
    <rect x="558" y="392" width="154" height="102" rx="20" fill="#f6bd60" stroke="#d97706" stroke-width="2"/>
    <path d="M558 426h154M635 392v102" stroke="#d97706" stroke-width="2" opacity="0.45"/>
  </g>

  <g filter="url(#shadow)">
    <rect x="382" y="382" width="156" height="126" rx="24" fill="#ffffff" stroke="#dbe5f1" stroke-width="2"/>
    <circle cx="414" cy="420" r="11" fill="#10b981"/>
    <path d="M408 419l5 6 12-16" fill="none" stroke="#ffffff" stroke-width="4" stroke-linecap="round" stroke-linejoin="round"/>
    <rect x="438" y="413" width="64" height="12" rx="6" fill="#cbd5e1"/>
    <circle cx="414" cy="458" r="11" fill="#10b981"/>
    <path d="M408 457l5 6 12-16" fill="none" stroke="#ffffff" stroke-width="4" stroke-linecap="round" stroke-linejoin="round"/>
    <rect x="438" y="451" width="78" height="12" rx="6" fill="#cbd5e1"/>
    <circle cx="414" cy="496" r="11" fill="#93c5fd"/>
    <rect x="438" y="489" width="52" height="12" rx="6" fill="#cbd5e1"/>
  </g>
</svg>
