<svg xmlns="http://www.w3.org/2000/svg" viewBox="0 0 760 520" role="img" aria-labelledby="title desc">
  <title id="title">Moving preparation board illustration</title>
  <desc id="desc">A calm illustration of people preparing moving boxes and checking a preparation board.</desc>
  <defs>
    <linearGradient id="bg" x1="0" y1="0" x2="1" y2="1">
      <stop offset="0" stop-color="#f8fbff"/>
      <stop offset="0.55" stop-color="#ffffff"/>
      <stop offset="1" stop-color="#eef7ff"/>
    </linearGradient>
    <linearGradient id="blue" x1="0" y1="0" x2="1" y2="1">
      <stop offset="0" stop-color="#4f46e5"/>
      <stop offset="1" stop-color="#06b6d4"/>
    </linearGradient>
    <filter id="shadow" x="-20%" y="-20%" width="140%" height="140%">
      <feDropShadow dx="0" dy="18" stdDeviation="18" flood-color="#0f172a" flood-opacity="0.13"/>
    </filter>
  </defs>

  <rect width="760" height="520" rx="36" fill="url(#bg)"/>
  <circle cx="88" cy="92" r="58" fill="#eef2ff"/>
  <circle cx="674" cy="94" r="70" fill="#ecfeff"/>
  <circle cx="652" cy="426" r="86" fill="#f0fdf4"/>

  <g filter="url(#shadow)">
    <rect x="332" y="54" width="344" height="230" rx="26" fill="#ffffff" stroke="#dbe5f1" stroke-width="2"/>
    <rect x="358" y="82" width="292" height="34" rx="12" fill="#eef2ff"/>
    <circle cx="380" cy="99" r="8" fill="#4f46e5"/>
    <rect x="398" y="93" width="138" height="12" rx="6" fill="#94a3b8"/>

    <g transform="translate(360 138)">
      <rect width="82" height="108" rx="16" fill="#f8fafc" stroke="#dbe5f1"/>
      <rect x="18" y="20" width="46" height="10" rx="5" fill="#cfe1ff"/>
      <rect x="18" y="44" width="46" height="10" rx="5" fill="#dbeafe"/>
      <rect x="18" y="68" width="34" height="10" rx="5" fill="#dcfce7"/>
    </g>
    <g transform="translate(462 138)">
      <rect width="82" height="108" rx="16" fill="#f8fafc" stroke="#dbe5f1"/>
      <rect x="20" y="22" width="42" height="34" rx="8" fill="#f6bd60" stroke="#d97706"/>
      <rect x="20" y="68" width="42" height="10" rx="5" fill="#cfe1ff"/>
      <rect x="20" y="88" width="30" height="10" rx="5" fill="#dcfce7"/>
    </g>
    <g transform="translate(564 138)">
      <rect width="82" height="108" rx="16" fill="#f8fafc" stroke="#dbe5f1"/>
      <path d="M24 42l12 12 24-30" fill="none" stroke="#10b981" stroke-width="8" stroke-linecap="round" stroke-linejoin="round"/>
      <rect x="20" y="72" width="44" height="10" rx="5" fill="#cfe1ff"/>
      <rect x="20" y="92" width="30" height="10" rx="5" fill="#dbeafe"/>
    </g>
  </g>

  <g filter="url(#shadow)">
    <rect x="78" y="304" width="146" height="104" rx="18" fill="#f6bd60" stroke="#d97706" stroke-width="2"/>
    <path d="M78 338h146M151 304v104" stroke="#d97706" stroke-width="2" opacity="0.45"/>
    <rect x="184" y="354" width="104" height="74" rx="16" fill="#fbbf24" stroke="#d97706" stroke-width="2"/>
    <path d="M184 380h104M236 354v74" stroke="#d97706" stroke-width="2" opacity="0.42"/>
    <rect x="108" y="418" width="110" height="66" rx="14" fill="#fcd34d" stroke="#d97706" stroke-width="2"/>
  </g>

  <g filter="url(#shadow)">
    <ellipse cx="205" cy="260" rx="76" ry="86" fill="#e0f2fe"/>
    <circle cx="196" cy="158" r="34" fill="#f8c8a4"/>
    <path d="M158 154c10-36 54-52 86-24 10 10 12 22 6 36-18-22-54-26-92-12z" fill="#5b341f"/>
    <path d="M150 245c16-46 82-52 108-6l22 68H128l22-62z" fill="#f9a8d4"/>
    <rect x="178" y="222" width="74" height="92" rx="14" fill="#ffffff" stroke="#cbd5e1"/>
    <path d="M192 246h38M192 270h48M192 294h34" stroke="#94a3b8" stroke-width="8" stroke-linecap="round"/>
    <path d="M142 285c18 16 36 22 58 22" stroke="#f8c8a4" stroke-width="16" stroke-linecap="round"/>
  </g>

  <g filter="url(#shadow)">
    <ellipse cx="558" cy="322" rx="86" ry="92" fill="#eef2ff"/>
    <circle cx="560" cy="190" r="36" fill="#f8c8a4"/>
    <path d="M520 184c8-38 56-58 92-24 14 14 12 34 4 48-22-26-58-32-96-24z" fill="#374151"/>
    <path d="M498 286c24-58 100-66 130-8l36 88H478l20-80z" fill="#93c5fd"/>
    <path d="M514 322c-18 26-36 54-44 86" stroke="#93c5fd" stroke-width="18" stroke-linecap="round"/>
    <path d="M620 312c22 20 44 44 54 80" stroke="#93c5fd" stroke-width="18" stroke-linecap="round"/>
    <rect x="488" y="324" width="132" height="88" rx="18" fill="#f6bd60" stroke="#d97706" stroke-width="2"/>
    <path d="M488 354h132M554 324v88" stroke="#d97706" stroke-width="2" opacity="0.42"/>
  </g>

  <g>
    <rect x="310" y="340" width="154" height="122" rx="22" fill="#ffffff" stroke="#dbe5f1" stroke-width="2"/>
    <circle cx="338" cy="374" r="10" fill="#10b981"/>
    <path d="M332 373l5 6 10-14" fill="none" stroke="#ffffff" stroke-width="4" stroke-linecap="round" stroke-linejoin="round"/>
    <rect x="360" y="366" width="72" height="12" rx="6" fill="#cbd5e1"/>
    <circle cx="338" cy="412" r="10" fill="#10b981"/>
    <path d="M332 411l5 6 10-14" fill="none" stroke="#ffffff" stroke-width="4" stroke-linecap="round" stroke-linejoin="round"/>
    <rect x="360" y="404" width="84" height="12" rx="6" fill="#cbd5e1"/>
    <circle cx="338" cy="450" r="10" fill="#93c5fd"/>
    <rect x="360" y="442" width="54" height="12" rx="6" fill="#cbd5e1"/>
  </g>
</svg>
