<svg xmlns="http://www.w3.org/2000/svg" viewBox="0 0 1920 1080" role="img" aria-label="SRE Lab reliability dashboard illustration">
  <defs>
    <linearGradient id="bg" x1="0" y1="0" x2="1" y2="1">
      <stop offset="0" stop-color="#071226"/>
      <stop offset="0.55" stop-color="#0b2142"/>
      <stop offset="1" stop-color="#102f5d"/>
    </linearGradient>
    <radialGradient id="rightGlow" cx="65%" cy="48%" r="45%">
      <stop offset="0" stop-color="#2690ff" stop-opacity="0.35"/>
      <stop offset="0.45" stop-color="#2690ff" stop-opacity="0.12"/>
      <stop offset="1" stop-color="#2690ff" stop-opacity="0"/>
    </radialGradient>
    <linearGradient id="leftFade" x1="0" y1="0" x2="1" y2="0">
      <stop offset="0" stop-color="#061024" stop-opacity="0.72"/>
      <stop offset="0.45" stop-color="#061024" stop-opacity="0.48"/>
      <stop offset="1" stop-color="#061024" stop-opacity="0"/>
    </linearGradient>
    <filter id="glow" x="-80%" y="-80%" width="260%" height="260%">
      <feGaussianBlur stdDeviation="8" result="blur"/>
      <feMerge>
        <feMergeNode in="blur"/>
        <feMergeNode in="SourceGraphic"/>
      </feMerge>
    </filter>
    <pattern id="grid" width="64" height="64" patternUnits="userSpaceOnUse">
      <path d="M64 0H0V64" fill="none" stroke="#2a4c7a" stroke-opacity="0.28" stroke-width="1"/>
    </pattern>
  </defs>

  <rect width="1920" height="1080" fill="url(#bg)"/>
  <rect width="1920" height="1080" fill="url(#grid)"/>
  <rect width="1920" height="1080" fill="url(#rightGlow)"/>

  <g fill="none" stroke-linecap="round" stroke-linejoin="round" filter="url(#glow)">
    <path d="M1160 520L910 300" stroke="#4be69b" stroke-opacity="0.82" stroke-width="4"/>
    <path d="M1160 520L1350 285" stroke="#ffcc50" stroke-opacity="0.82" stroke-width="4"/>
    <path d="M1160 520L1510 565" stroke="#ff6070" stroke-opacity="0.82" stroke-width="4"/>
    <path d="M1160 520L1050 780" stroke="#50acff" stroke-opacity="0.82" stroke-width="4"/>
    <path d="M1160 520L1390 790" stroke="#8c78ff" stroke-opacity="0.82" stroke-width="4"/>
  </g>

  <g opacity="0.96">
    <rect x="1010" y="410" width="300" height="220" rx="30" fill="#0d2346" stroke="#62caff" stroke-width="3"/>
    <circle cx="1160" cy="505" r="52" fill="#144b82" stroke="#81dcff" stroke-width="4"/>
    <path d="M1125 505H1195M1160 455V555M1130 482C1148 495 1172 495 1190 482M1130 528C1148 515 1172 515 1190 528" stroke="#8ee7ff" stroke-width="4" fill="none" stroke-linecap="round"/>
  </g>

  <g>
    <circle cx="910" cy="300" r="28" fill="#0c1c37" stroke="#4be69b" stroke-width="6"/>
    <circle cx="910" cy="300" r="9" fill="#4be69b"/>
    <circle cx="1350" cy="285" r="28" fill="#0c1c37" stroke="#ffcc50" stroke-width="6"/>
    <circle cx="1350" cy="285" r="9" fill="#ffcc50"/>
    <circle cx="1510" cy="565" r="28" fill="#0c1c37" stroke="#ff6070" stroke-width="6"/>
    <circle cx="1510" cy="565" r="9" fill="#ff6070"/>
    <circle cx="1050" cy="780" r="28" fill="#0c1c37" stroke="#50acff" stroke-width="6"/>
    <circle cx="1050" cy="780" r="9" fill="#50acff"/>
    <circle cx="1390" cy="790" r="28" fill="#0c1c37" stroke="#8c78ff" stroke-width="6"/>
    <circle cx="1390" cy="790" r="9" fill="#8c78ff"/>
  </g>

  <g fill="#0d2242" stroke="#4777b5" stroke-opacity="0.85" stroke-width="2">
    <rect x="1320" y="370" width="340" height="150" rx="22"/>
    <rect x="780" y="160" width="340" height="150" rx="22"/>
    <rect x="1230" y="680" width="390" height="165" rx="22"/>
    <rect x="800" y="620" width="200" height="200" rx="22"/>
    <rect x="1485" y="165" width="250" height="130" rx="18"/>
    <rect x="705" y="395" width="205" height="160" rx="18"/>
  </g>

  <g fill="none" stroke-linecap="round" stroke-linejoin="round">
    <path d="M1355 480L1388 450L1424 466L1464 425L1502 438L1548 405L1625 428" stroke="#4be69b" stroke-width="5"/>
    <path d="M815 270L850 238L885 254L922 218L956 240L998 210L1088 238" stroke="#ffcc50" stroke-width="5"/>
    <path d="M1270 795L1315 760L1358 778L1400 734L1458 754L1508 710L1588 742" stroke="#50acff" stroke-width="5"/>
  </g>

  <g fill="none" stroke-linecap="round">
    <path d="M840 735A60 60 0 0 1 960 735" stroke="#38567f" stroke-width="14"/>
    <path d="M840 735A60 60 0 0 1 946 690" stroke="#4be69b" stroke-width="14"/>
    <path d="M900 735L946 690" stroke="#f4ffff" stroke-width="5"/>
    <circle cx="900" cy="735" r="8" fill="#f4ffff"/>
  </g>

  <g>
    <circle cx="1522" cy="202" r="8" fill="#ff6070"/>
    <circle cx="1552" cy="202" r="8" fill="#ffcc50"/>
    <circle cx="1582" cy="202" r="8" fill="#4be69b"/>
    <rect x="1518" y="235" width="178" height="6" rx="3" fill="#8ba5ca"/>
    <rect x="1518" y="260" width="142" height="5" rx="3" fill="#5b79a8"/>
    <path d="M860 395L910 445H860Z" fill="#1c4778"/>
    <rect x="735" y="430" width="130" height="6" rx="3" fill="#8baad6"/>
    <rect x="735" y="462" width="128" height="6" rx="3" fill="#8baad6"/>
    <rect x="735" y="494" width="118" height="6" rx="3" fill="#8baad6"/>
    <rect x="735" y="526" width="100" height="6" rx="3" fill="#8baad6"/>
  </g>

  <g stroke="#50acff" stroke-width="3" fill="#0d2242">
    <rect x="690" y="910" width="130" height="70" rx="16"/>
    <rect x="875" y="910" width="130" height="70" rx="16"/>
    <rect x="1060" y="910" width="130" height="70" rx="16"/>
    <rect x="1245" y="910" width="130" height="70" rx="16"/>
    <path d="M820 945H875M1005 945H1060M1190 945H1245" fill="none"/>
  </g>

  <rect width="900" height="1080" fill="url(#leftFade)"/>
</svg>
